<svg id="Capa_2" xmlns="http://www.w3.org/2000/svg" width="57.15" height="57.16" viewBox="0 0 57.15 57.16">
  <g id="Capa_1-2" data-name="Capa_1">
    <path  d="M57.13,29.64c-.61,16-14.13,28.13-29.67,27.5C11.5,56.48-.58,43.01.02,27.52.64,11.45,14.22-.6,29.69.02c15.94.64,28.05,14.11,27.44,29.61ZM30.53,28.78c-.49.34-.93.57-1.28.91-1.91,1.86-3.8,3.74-5.67,5.64-1.3,1.31-1.36,3.13-.21,4.34,1.17,1.23,3.12,1.24,4.43-.06,2.94-2.9,5.86-5.82,8.76-8.76,1.41-1.43,1.39-3.14-.03-4.58-2.88-2.91-5.77-5.81-8.69-8.67-.43-.43-1.03-.78-1.62-.94-1.33-.36-2.63.26-3.27,1.39-.7,1.24-.52,2.61.57,3.71,2.21,2.25,4.45,4.46,7.01,7.02Z"/>
  </g>
</svg>