<svg id="Capa_2" xmlns="http://www.w3.org/2000/svg" width="72.86" height="52.13" viewBox="0 0 72.86 52.13">
  <g id="Capa_1-2" data-name="Capa_1">
    <g>
      <path fill="currentColor" d="M69.45,5.72c1.66.73,2.91,1.78,3.28,3.5.19.89.17,1.9-.02,2.79-.43,2-1.02,3.96-1.55,5.94-.19.71-.5,1.37-1.38,1.16-.94-.22-.93-.96-.72-1.73.54-2.01,1.1-4.02,1.61-6.04.39-1.56-.21-2.7-1.85-3.42-.59,2.16-1.22,4.3-1.73,6.46-.23.98-.28,2.01-.29,3.02-.02,7.83-.01,15.65-.01,23.48,0,.19.07.45-.02.56-.33.38-.73.71-1.1,1.06-.32-.35-.9-.69-.92-1.07-.11-1.47-.06-2.96-.06-4.44,0-4.25,0-8.5-.2-12.8-.53,1.95-1.05,3.91-1.58,5.86-.24.88-.45,1.76-.71,2.63-.42,1.37-1.35,2.21-2.79,2.3-.71.04-1,.3-1.1.98-.09.63-.2,1.32-.53,1.84-.24.38-.86.53-1.31.79-.24-.45-.54-.88-.71-1.36-.07-.21.1-.51.19-.76.39-1.13.67-2.11-.57-3.06-.88-.68-.84-1.88-.55-2.97,1.23-4.58,2.43-9.16,3.64-13.74.06-.21.08-.43.14-.8-.5,0-.9,0-1.31,0-17.71,0-35.41,0-53.12,0-1.86,0-2.08.23-2.08,2.11,0,9.95,0,19.91,0,29.86,0,1.86.25,2.11,2.09,2.11,7.26,0,14.51,0,21.77,0,.34,0,.76-.1,1.01.06.36.24.82.67.82,1.02,0,.34-.48.75-.84,1-.21.15-.59.05-.89.05-7.41,0-14.82,0-22.23,0-2.67,0-3.85-1.21-3.85-3.92,0-10.18,0-20.36,0-30.54,0-2.67,1.23-3.89,3.9-3.89,18.01,0,36.02,0,54.03.02.98,0,1.44-.17,1.69-1.24.75-3.17,1.66-6.3,2.49-9.46.63-2.39,2.24-3.47,4.43-2.92,2.79.71,3.71,2.16,3.05,4.82-.05.22-.08.44-.14.76ZM63.6,19.12c1.34-5.06,2.62-9.92,3.9-14.78.31-1.18.05-1.68-.98-1.97-1.48-.41-1.9-.22-2.28,1.13-.69,2.48-1.35,4.96-2.01,7.45-.64,2.4-1.26,4.8-1.92,7.31,1.12.3,2.13.56,3.28.87ZM59.76,20.35c-.3,1.11-.57,2.09-.83,3.07-.27,1.01-.53,2.03-.81,3.1,1.11.3,2.12.57,3.25.88.52-1.94,1.04-3.78,1.49-5.65.05-.19-.31-.63-.57-.72-.78-.28-1.6-.44-2.54-.69ZM57.57,28.64c-.26.92-.58,1.71-.66,2.51-.04.42.25,1.05.6,1.28,1.42.93,2.4.52,2.84-1.1.16-.57.28-1.16.45-1.83-1.06-.28-2.06-.55-3.23-.86Z"/>
      <path fill="currentColor" d="M26.23,26.3c-6.04,0-12.07,0-18.11,0-2.24,0-3.16-.93-3.18-3.19,0-.91-.04-1.82.03-2.73.11-1.55,1.12-2.54,2.66-2.54,12.34-.01,24.68-.01,37.02,0,1.58,0,2.64,1.04,2.72,2.62.05.98.03,1.97.01,2.96-.04,1.85-1.08,2.88-2.92,2.88-6.08,0-12.15,0-18.23,0ZM25.99,24.21c5.54,0,11.08.01,16.62,0,2.92,0,2.56.41,2.58-2.62.01-1.66,0-1.66-1.72-1.66-11.23,0-22.47,0-33.7,0-3.15,0-2.67-.35-2.7,2.73-.02,1.54,0,1.55,1.61,1.55,5.77,0,11.54,0,17.31,0Z"/>
      <path fill="currentColor" d="M33.97,44.74c1.23-1.39,2.28-2.58,3.33-3.76.95-1.07,1.4-1.04,2.38.01.86.91,1.77,1.77,2.72,2.57.89.75,1.85.76,2.79-.03.64-.54,1.29-1.07,1.99-1.52,1.44-.93,2.68-.88,3.94.29,1.2,1.12,2.44,1.41,3.94.68.6-.29,1.33-.23,1.47.52.08.42-.22,1.12-.58,1.37-1.7,1.16-4.1.94-5.79-.6-.92-.84-1.62-.79-2.44-.02-.08.08-.18.15-.26.22-3.18,2.53-4.72,2.49-7.73-.27-.41-.38-.72-.88-1.12-1.38-1.28,1.4-2.35,2.63-3.48,3.79-1.58,1.61-2.42,1.39-3.04-.76-.18-.62-.35-1.23-.76-1.95-.29.77-.57,1.53-.87,2.3-.13.35-.18.83-.44,1.03-.36.28-.98.6-1.31.46-.33-.14-.71-.9-.6-1.24.8-2.41,1.69-4.79,2.63-7.15.13-.33.79-.7,1.13-.64.36.06.81.57.92.96.43,1.6.75,3.23,1.16,5.12Z"/>
      <path fill="currentColor" d="M47.79,52.09c-5.05,0-10.09,0-15.14,0-.34,0-.75.11-1.01-.04-.4-.24-.96-.66-.96-1,0-.36.55-.78.95-1.03.25-.15.67-.04,1.01-.04,9.98,0,19.96,0,29.94,0,1.86,0,2.12-.26,2.12-2.08,0-.57-.1-1.17.06-1.69.12-.38.63-.93.9-.9.4.05,1.04.52,1.07.86.11,1.16.13,2.36-.06,3.51-.25,1.49-1.6,2.42-3.28,2.42-5.2.01-10.4,0-15.6,0Z"/>
      <path fill="currentColor" d="M20.48,31.11c-4.67,0-9.35,0-14.02,0-.75,0-1.42-.11-1.48-1.02-.04-.74.41-1.11,1.13-1.12.76-.01,1.52,0,2.28,0,8.55,0,17.1,0,25.64,0,.38,0,.82-.1,1.12.07.35.19.79.63.77.94-.03.38-.43.81-.78,1.07-.23.17-.66.07-1,.07-4.56,0-9.12,0-13.68,0Z"/>
      <path fill="currentColor" d="M20.4,33.8c4.56,0,9.11,0,13.67,0,.34,0,.76-.11,1.01.05.37.23.84.65.85,1,0,.34-.46.77-.82,1-.24.16-.66.07-1,.07-9.08,0-18.15,0-27.23,0-.11,0-.23,0-.34,0-.76,0-1.55-.03-1.55-1.04,0-.99.73-1.08,1.52-1.08,3.34.01,6.68,0,10.03,0,1.29,0,2.58,0,3.87,0Z"/>
    </g>
  </g>
</svg>