<svg id="Capa_2" xmlns="http://www.w3.org/2000/svg" viewBox="0 0 88.12 91.45">
    <g id="Capa_1-2">
        <path fill="#ffffff" d="m44.04,41.65c-11.97,0-23.93,0-35.9,0-.38,0-.75,0-1.13,0-1.82-.02-3.12-1.29-3.12-3.11-.01-7.82,0-15.65,0-23.47,0-3.89.04-7.78-.02-11.67-.02-1.21.44-2.06,1.32-2.8C5.66.2,6.15.02,6.76.02c7.07,0,14.14,0,21.21,0,.38,0,.73.04,1.02.33.34.34.67.75.45,1.2-.23.46-.56.95-1.22.93-.29-.01-.59,0-.88,0-6.44,0-12.89,0-19.33,0-.25,0-.5,0-.75,0-.73.03-.89.17-.9.87-.02,1.25,0,2.51,0,3.77,0,.32.14.45.45.43.29-.01.59,0,.88,0,24.27,0,48.53,0,72.8,0q1.28,0,1.28-1.23c0-1,.01-2.01,0-3.01-.01-.62-.2-.79-.82-.82-.29-.02-.59,0-.88,0-15.44,0-30.88,0-46.31,0-.44,0-.89.09-1.33-.17-.59-.35-.79-.69-.64-1.43.09-.46.53-.82,1.06-.85.33-.02.67,0,1,0,15.52,0,31.04,0,46.56,0,.21,0,.42.02.63,0,1.41-.15,2.23.7,2.92,1.73.17.26.2.61.27.93.04.2.02.42.02.63,0,11.67-.01,23.34.02,35.02,0,1.22-.48,2.05-1.35,2.78-.43.36-.89.56-1.46.54-.46-.01-.92,0-1.38,0-12.01,0-24.01,0-36.02,0Zm.03-31.65c-12.22,0-24.43,0-36.65,0-1.47,0-1.23-.13-1.23,1.16,0,8.83,0,17.66,0,26.48,0,.21-.02.42,0,.63.07.71.28.9,1.03.92.25,0,.5,0,.75,0,24.06,0,48.11,0,72.17,0,.25,0,.5,0,.75,0,.81-.02.99-.2,1.04-1.03.02-.25,0-.5,0-.75,0-8.7,0-17.4,0-26.11q0-1.3-1.34-1.3c-12.17,0-24.35,0-36.52,0Z"/>
        <path fill="#ffffff" d="m33.3,13.54c6.52,0,13.05,0,19.57,0,.63,0,1.25,0,1.77.43.6.5,1,1.08.98,1.92-.03,1.17,0,2.34-.01,3.51-.01,1.54-.93,2.46-2.48,2.46-5.56,0-11.12,0-16.69,0-3.43,0-6.86,0-10.29,0-.46,0-.9.03-1.19-.48-.44-.78-.11-1.63.77-1.79.32-.06.67-.02,1-.02,8.36,0,16.73,0,25.09,0,.25,0,.5,0,.75,0,.74-.01.74-.01.75-.74,0-.84-.01-1.67,0-2.51,0-.39-.14-.52-.51-.49-.25.02-.5,0-.75,0-12.55,0-25.09,0-37.64,0-.25,0-.5.02-.75,0-.4-.03-.48.16-.47.52.02.88,0,1.76,0,2.63,0,.57.02.58.65.59,1.76,0,3.51,0,5.27,0,.67,0,1.34-.03,2.01,0,.99.05,1.5,1.08.98,1.92-.21.33-.53.36-.88.36-1.25,0-2.51,0-3.76,0-1.38,0-2.76.01-4.14,0-1.46-.02-2.4-.95-2.43-2.4-.02-1.13-.01-2.26,0-3.39.02-1.6.95-2.53,2.56-2.53,6.61,0,13.21,0,19.82,0Z"/>
        <path fill="#ffffff" d="m33.14,27.9c-6.69,0-13.37,0-20.06,0-.33,0-.67.01-1,0-.7-.04-1.15-.45-1.16-1.04-.02-.63.45-1.17,1.12-1.24.33-.04.67,0,1,0,12.95,0,25.91,0,38.86,0,.84,0,1.67-.03,2.51,0,.83.04,1.25.51,1.2,1.25-.04.54-.38.94-.91,1.01-.37.05-.75.03-1.13.03-6.81,0-13.62,0-20.43,0Z"/>
        <path fill="#ffffff" d="m69.38,29.93c0-.21-.01-.42,0-.63.03-.34-.12-.54-.42-.68-.48-.23-.94-.5-1.43-.7-1.93-.78-1.96-4.31.07-5.18.37-.16.78-.26,1.14-.44.24-.12.49-.29.63-.5.4-.61.77-.7,1.16-.13.21.31.39.4.74.47.63.13,1.31.14,1.81.68.45.48.49.92.09,1.57-.31.5-.61.57-1.27.3-.15-.06-.3-.14-.45-.21-.55-.24-.93-.22-.83.5.01.08.01.17,0,.25-.13.97.08,1.71,1.18,1.93.15.03.3.14.44.22,2.24,1.34,1.77,4.89-.24,5.76-.61.26-1.29.41-1.63,1.15-.13.29-.85.22-.94-.08-.16-.54-.53-.5-.95-.6-1.04-.24-2.1-.5-2.62-1.61-.17-.36.02-1.17.38-1.53.3-.29.79-.32,1.23-.06.43.25.83.55,1.28.74.39.17.59-.02.61-.46,0-.25,0-.5,0-.75Zm1.19-.55c-.04.06-.15.14-.15.23-.02.45-.02.9,0,1.35,0,.11.06.23.09.34.14-.06.32-.08.42-.18.19-.2.39-.41.48-.66.14-.36-.4-1.07-.82-1.08Zm-1.15-3.82c0-.54.01-.79,0-1.04,0-.05-.11-.13-.17-.15-.39-.07-1.01.71-.78,1.04.19.28.54.45.83.67.07-.27.14-.53.14-.52Z"/>
        <path fill="#ffffff" d="m20.01,33.65c-2.5,0-5.01,0-7.51,0-.33,0-.69.02-.97-.11-.38-.18-.64-.52-.61-1.01.04-.46.39-.97.85-1.09.28-.07.58-.06.86-.06,5.05,0,10.1,0,15.15,0,.21,0,.42-.02.63.01.57.09.89.51.89,1.16,0,.71-.22,1-.9,1.09-.29.04-.58.01-.88.01-2.5,0-5.01,0-7.51,0Z"/>
        <path fill="#ffffff" d="m70.06,15.3c2.13,0,4.26.01,6.39,0,.63,0,1.13.16,1.4.77.28.62-.14,1.42-.8,1.52-.24.04-.5.02-.75.02-4.22,0-8.43,0-12.65,0-.21,0-.42.02-.63,0-.57-.07-1.11-.64-1.12-1.13,0-.43.64-1.11,1.14-1.15.37-.03.75,0,1.13,0,1.96,0,3.92,0,5.89,0Z"/>
        <path fill="#ffffff" d="m17.42,83.54c-1.09,3.68-2.34,4.6-6.24,4.61-2.94,0-5.87,0-8.81,0-1.85,0-2.36-.5-2.36-2.3,0-10.91,0-21.81,0-32.72,0-1.71.45-2.16,2.13-2.17,3.15-.02,6.29,0,9.44,0,3.73,0,5.21,1.26,5.84,5.09,3.63,0,7.3.13,10.95-.04,3.79-.17,7.28.59,10.55,2.47,4.24,2.44,8.75,3.66,13.69,3.18,1.45-.14,2.93-.03,4.4-.02,3.95.04,6.36,2.1,7.04,5.99.06.35.11.7.19,1.23,4.07-1.54,8.02-3.03,11.97-4.51,1.03-.38,2.06-.82,3.12-1.04,3.67-.74,7.37,1.47,8.44,4.93,1.16,3.75-.64,7.63-4.38,9.14-6.12,2.46-12.27,4.84-18.42,7.22-5.02,1.95-10,4.05-15.11,5.74-5.88,1.95-11.69,1.26-17.23-1.5-2.39-1.19-4.8-2.37-7.09-3.73-2.51-1.5-5.15-1.95-8.12-1.56Zm-.03-24.27v20.94c.55.02,1.01.09,1.47.06,2.93-.24,5.56.58,8.09,2.02,2.45,1.4,4.97,2.71,7.52,3.93,4.79,2.28,9.83,2.85,14.81.99,11.12-4.16,22.16-8.54,33.2-12.94.9-.36,1.7-1.4,2.14-2.32.75-1.56.28-3.11-.91-4.33-1.3-1.33-2.9-1.6-4.63-.96-4.46,1.66-8.92,3.34-13.37,5.04-1.36.52-2.79.97-4,1.75-1.56,1.01-3.16,1.54-5.01,1.53-4.98-.04-9.96-.01-14.94-.01-.42,0-.97.14-1.23-.06-.56-.44-1.27-1.03-1.33-1.62-.05-.43.78-1.07,1.34-1.41.34-.21.92-.06,1.39-.06,5.09,0,10.17.02,15.26-.01,2.15-.01,3.69-1.49,3.73-3.46.04-1.97-1.45-3.48-3.64-3.53-2.46-.05-4.93.03-7.39.02-3.33-.02-6.56-.45-9.54-2.16-1.58-.91-3.28-1.63-4.97-2.34-1.05-.44-2.18-.97-3.28-1-4.86-.11-9.73-.05-14.71-.05Zm-14.15,25.72c2.79,0,5.51,0,8.22,0,2.26,0,2.68-.4,2.68-2.62,0-8.13,0-16.25,0-24.38q0-3.87-3.91-3.87c-2.33,0-4.67,0-6.99,0v30.87Z"/>
    </g>
</svg>