<svg id="Capa_2" xmlns="http://www.w3.org/2000/svg" width="71.25" height="36.92" viewBox="0 0 71.25 36.92">
  <g id="Capa_1-2" data-name="Capa_1">
    <g>
      <path fill="currentColor" d="M35.61,36.91c-10.61,0-21.21,0-31.82,0-.33,0-.67,0-1,0-1.61-.02-2.76-1.14-2.76-2.76,0-6.93,0-13.87,0-20.8,0-3.45.03-6.9-.02-10.35C-.02,1.93.39,1.18,1.17.53,1.58.18,2.02.02,2.56.02c6.27,0,12.53,0,18.8,0,.34,0,.65.03.91.3.3.3.6.67.4,1.06-.2.4-.5.84-1.08.82-.26,0-.52,0-.78,0-5.71,0-11.42,0-17.13,0-.22,0-.45,0-.67,0-.64.03-.79.15-.8.77-.01,1.11,0,2.22,0,3.34,0,.29.12.4.4.38.26-.01.52,0,.78,0,21.51,0,43.02,0,64.52,0q1.13,0,1.13-1.09c0-.89.01-1.78,0-2.67,0-.55-.17-.7-.73-.73-.26-.01-.52,0-.78,0-13.68,0-27.37,0-41.05,0-.39,0-.79.08-1.18-.15-.52-.31-.7-.61-.57-1.26.08-.41.47-.73.94-.75.3-.01.59,0,.89,0,13.76,0,27.52,0,41.27,0,.19,0,.37.02.56,0,1.25-.13,1.98.62,2.59,1.53.15.23.18.54.24.82.04.18.02.37.02.55,0,10.35-.01,20.69.02,31.04,0,1.08-.43,1.82-1.2,2.46-.38.32-.79.5-1.29.48-.41-.01-.82,0-1.22,0-10.64,0-21.29,0-31.93,0ZM35.63,8.86c-10.83,0-21.66,0-32.49,0-1.3,0-1.09-.11-1.09,1.03,0,7.82,0,15.65,0,23.47,0,.19-.02.37,0,.56.06.63.25.8.91.82.22,0,.44,0,.67,0,21.32,0,42.65,0,63.97,0,.22,0,.45,0,.67,0,.71-.02.88-.18.92-.92.01-.22,0-.44,0-.67,0-7.71,0-15.43,0-23.14q0-1.15-1.19-1.15c-10.79,0-21.58,0-32.37,0Z"/>
      <path fill="currentColor" d="M26.09,12c5.78,0,11.56,0,17.35,0,.56,0,1.11,0,1.57.38.53.44.89.96.87,1.7-.03,1.04,0,2.08,0,3.11-.01,1.37-.82,2.18-2.2,2.18-4.93,0-9.86,0-14.79,0-3.04,0-6.08,0-9.12,0-.41,0-.8.03-1.05-.42-.39-.69-.1-1.44.68-1.59.29-.05.59-.02.89-.02,7.41,0,14.83,0,22.24,0,.22,0,.44,0,.67,0,.65-.01.66-.01.66-.66,0-.74-.01-1.48,0-2.22,0-.34-.13-.46-.46-.43-.22.02-.44,0-.67,0-11.12,0-22.24,0-33.36,0-.22,0-.45.02-.67,0-.36-.03-.43.14-.42.46.02.78,0,1.56,0,2.34,0,.51.01.52.58.52,1.56,0,3.11,0,4.67,0,.59,0,1.19-.02,1.78,0,.88.05,1.33.96.87,1.7-.18.29-.47.32-.78.32-1.11,0-2.22,0-3.34,0-1.22,0-2.45,0-3.67,0-1.29-.01-2.13-.84-2.15-2.13-.02-1-.01-2,0-3,.02-1.42.84-2.24,2.27-2.24,5.86,0,11.71,0,17.57,0Z"/>
      <path fill="currentColor" d="M25.94,24.73c-5.93,0-11.85,0-17.78,0-.3,0-.59.01-.89,0-.62-.04-1.02-.4-1.03-.92-.02-.56.4-1.03,1-1.1.29-.03.59,0,.89,0,11.48,0,22.96,0,34.44,0,.74,0,1.48-.03,2.22,0,.74.04,1.11.45,1.07,1.11-.03.48-.34.83-.81.89-.33.04-.67.02-1,.02-6.04,0-12.07,0-18.11,0Z"/>
      <path fill="currentColor" d="M58.07,26.53c0-.19-.01-.37,0-.55.02-.3-.11-.48-.37-.6-.43-.2-.83-.45-1.27-.62-1.71-.69-1.74-3.82.07-4.59.33-.14.69-.23,1.01-.39.21-.1.43-.26.56-.45.36-.54.68-.62,1.03-.11.19.27.35.35.65.42.55.12,1.16.13,1.6.6.39.43.43.82.08,1.39-.27.44-.54.51-1.12.27-.13-.06-.26-.12-.4-.18-.49-.22-.82-.19-.73.44.01.07,0,.15,0,.22-.12.86.07,1.52,1.05,1.71.14.03.26.12.39.2,1.99,1.18,1.57,4.34-.21,5.11-.54.23-1.15.37-1.44,1.02-.12.26-.75.2-.84-.07-.14-.48-.47-.44-.84-.53-.92-.21-1.86-.44-2.32-1.43-.15-.32.02-1.04.34-1.36.26-.26.7-.28,1.09-.06.38.22.73.48,1.13.65.35.15.52-.02.54-.41,0-.22,0-.44,0-.67ZM59.12,26.04c-.04.05-.13.13-.14.21-.02.4-.02.8,0,1.2,0,.1.05.2.08.3.12-.05.28-.07.37-.16.17-.17.34-.37.43-.59.13-.32-.35-.95-.73-.96ZM58.1,22.65c0-.48,0-.7,0-.92,0-.05-.09-.12-.15-.13-.34-.07-.89.63-.69.92.17.25.48.4.73.6.06-.24.12-.47.12-.47Z"/>
      <path fill="currentColor" d="M14.3,29.83c-2.22,0-4.44,0-6.66,0-.29,0-.62.02-.86-.1-.33-.16-.57-.46-.54-.89.03-.41.35-.86.75-.96.24-.06.51-.06.77-.06,4.48,0,8.95,0,13.43,0,.18,0,.37-.02.55.01.51.08.78.45.79,1.03,0,.63-.2.89-.8.97-.25.03-.52.01-.78.01-2.22,0-4.44,0-6.66,0Z"/>
      <path fill="currentColor" d="M58.66,13.56c1.89,0,3.77,0,5.66,0,.56,0,1.01.14,1.25.68.24.55-.13,1.26-.71,1.35-.22.03-.44.02-.66.02-3.74,0-7.47,0-11.21,0-.18,0-.37.02-.55,0-.5-.07-.98-.57-.99-1,0-.38.56-.98,1.01-1.02.33-.03.67,0,1,0,1.74,0,3.48,0,5.22,0Z"/>
      <path fill="currentColor" d="M59.12,26.04c.38,0,.86.64.73.96-.09.22-.26.41-.43.59-.09.09-.24.11-.37.16-.03-.1-.08-.2-.08-.3,0-.4,0-.8,0-1.2,0-.08.1-.15.14-.21Z"/>
      <path fill="currentColor" d="M58.1,22.65s-.06.23-.12.47c-.25-.19-.56-.35-.73-.6-.2-.3.35-.99.69-.92.06.01.15.08.15.13.02.22,0,.44,0,.92Z"/>
    </g>
  </g>
</svg>