<?xml version="1.0" encoding="UTF-8"?>
<svg id="Capa_2" xmlns="http://www.w3.org/2000/svg" width="54.88" height="44.61" viewBox="0 0 54.88 44.61">
  <g id="Capa_1-2" data-name="Capa_1">
    <g>
      <path fill="currentColor" d="M54.88,22.32c-.17,11.19-8.25,20.52-19.41,22.06-6.51.89-12.36-.86-17.42-5.09-1.12-.94-1.29-1.97-.54-2.89.76-.94,1.9-.94,3.02-.02,10.52,8.73,26.2,3.8,29.79-9.36,2.89-10.57-4.46-21.67-15.29-23.02-5.42-.68-10.28.69-14.5,4.21-1.01.84-1.96.93-2.76.27-1-.83-.97-2.09.12-3.04,3.12-2.72,6.73-4.43,10.81-5.11,11.74-1.97,22.87,5.47,25.5,17.1.36,1.6.45,3.27.66,4.9Z"/>
      <path fill="currentColor" d="M29.5,16.12c0-1.62-.02-3.25,0-4.87.02-1.1.57-1.8,1.54-2.03.88-.21,1.59.14,2.01.9.2.36.25.85.26,1.28.02,2.7.03,5.41,0,8.11,0,.66.17,1.13.64,1.59,2.32,2.27,4.6,4.58,6.89,6.88.67.67.9,1.46.43,2.34-.42.79-1.13,1.15-1.99.97-.44-.09-.89-.37-1.21-.68-2.61-2.57-5.21-5.14-7.74-7.78-.46-.47-.75-1.26-.8-1.93-.12-1.58-.04-3.18-.04-4.77Z"/>
      <path fill="currentColor" d="M12.08,24.21c-2.42,0-4.84,0-7.25,0-1.43,0-2.33-.77-2.3-1.96.03-1.16.88-1.87,2.29-1.87,4.84,0,9.67,0,14.51,0,1.44,0,2.33.77,2.31,1.95-.03,1.15-.89,1.87-2.29,1.87-2.42,0-4.84,0-7.25,0Z"/>
      <path fill="currentColor" d="M9.48,15.27c-2.42,0-4.83,0-7.25,0C.81,15.26,0,14.55,0,13.37c0-1.18.83-1.92,2.24-1.92,4.87-.01,9.73,0,14.6,0,.92,0,1.7.28,2.09,1.2.31.74.24,1.52-.38,2.01-.46.36-1.13.58-1.72.6-2.45.06-4.9.03-7.34.03Z"/>
      <path fill="currentColor" d="M14.56,29.32c2.45,0,4.9,0,7.35,0,1.43,0,2.25.69,2.26,1.88,0,1.18-.82,1.94-2.22,1.95-4.9.01-9.79.02-14.69,0-1.63,0-2.58-1.29-2.03-2.65.36-.88,1.08-1.18,1.99-1.18,2.45.01,4.9,0,7.35,0Z"/>
    </g>
  </g>
</svg>