<svg id="Capa_2" xmlns="http://www.w3.org/2000/svg" width="71.92" height="45.28" viewBox="0 0 71.92 45.28">
  <g id="Capa_1-2" data-name="Capa_1">
    <g>
      <path fill="currentColor" d="M12.07,44.59c-.35-.9-.8-1.78-1.04-2.72-.64-2.45-.6-2.46-3.08-2.68-1.53-.14-3.06-.25-4.59-.39-2.35-.22-3.53-1.61-3.34-3.95.71-8.62,1.43-17.24,2.15-25.86.2-2.37,1.58-3.53,3.94-3.33,7.34.61,14.67,1.25,22.01,1.83.94.07,1.93,0,2.85-.21C40.94,4.96,50.88,2.59,60.83.24c3.02-.71,4.33.1,5.05,3.13,1.96,8.21,3.92,16.41,5.87,24.62.58,2.42-.35,3.93-2.8,4.53-1.84.45-3.68.89-5.54,1.29-.59.13-.82.37-.86.99-.1,1.75-.27,3.49-.42,5.24-.22,2.41-1.6,3.57-4.02,3.37-8.3-.69-16.6-1.4-24.89-2.08-.7-.06-1.43,0-2.11.15-5.16,1.19-10.3,2.41-15.45,3.63-1.21.29-2.34.27-3.32-.63-.09.04-.18.07-.27.11ZM36.86,7.98l.02.25c2.38.2,4.77.38,7.15.61.76.07,1.88-.17,1.81,1.1-.07,1.34-1.17.97-1.98.91-9.44-.78-18.88-1.58-28.33-2.37-.45-.04-.9-.05-1.33-.07-1.49,5.6-5.08,8.55-10.71,9.04-.24,2.86-.46,5.68-.72,8.49-.06.65.09.92.77,1.11,3.09.82,5.49,2.64,6.91,5.51.74,1.51,1.07,3.21,1.63,4.97,12.51,1.05,25.26,2.12,37.99,3.19,1.46-5.63,5.06-8.57,10.73-9.07.26-3.12.51-6.21.77-9.32-5.56-1.47-8.6-5.03-9.12-10.72-.56-.05-1.06-.09-1.55-.13-.73-.05-1.41-.2-1.34-1.14.08-.96.79-.94,1.51-.88,3.24.27,6.49.53,9.73.81,2.52.22,3.66,1.61,3.45,4.17-.45,5.42-.9,10.83-1.34,16.25-.03.37-.03.75-.05,1.21,1.96-.46,3.77-.88,5.57-1.32,1.38-.34,1.66-.79,1.33-2.15-1.97-8.28-3.94-16.56-5.92-24.84-.38-1.58-.75-1.78-2.37-1.4-5.29,1.25-10.58,2.49-15.87,3.74-2.92.69-5.83,1.38-8.74,2.07ZM2.54,28.95c-.18,2.18-.41,4.28-.48,6.38-.01.45.53,1.26.9,1.32,2.21.32,4.44.46,6.67.66.07-3.97-3.19-7.8-7.1-8.36ZM12.03,8.18c-2.18-.19-4.28-.42-6.38-.49-.45-.01-1.28.53-1.34.9-.32,2.2-.45,4.43-.65,6.66,4.02.05,7.85-3.2,8.37-7.07ZM61.76,20.11c.18-2.17.37-4.26.51-6.36.05-.7-.21-1.31-1.02-1.39-2.2-.22-4.4-.4-6.61-.6-.05,3.97,3.16,7.76,7.11,8.35ZM60.63,33.81c-3.97-.09-7.83,3.21-8.36,7.07,2.13.18,4.26.37,6.38.53.86.06,1.35-.45,1.43-1.26.21-2.09.36-4.18.55-6.34ZM12.56,39.58c.2.88.36,1.64.56,2.4.31,1.18.77,1.46,1.96,1.19,1.78-.4,3.55-.83,5.33-1.25,1.51-.36,3.02-.72,4.53-1.09,0-.07-.01-.14-.02-.21-4.07-.34-8.15-.69-12.36-1.04Z"/>
      <path fill="currentColor" d="M42.5,32.77c-3.57,4.48-9.8,6.2-14.98,4.12-.37-.15-.81-.42-.96-.75-.12-.26.02-.89.25-1.03.33-.2.88-.26,1.26-.13,3.33,1.16,6.57,1.06,9.62-.74,3.83-2.26,5.8-5.69,5.62-10.14-.18-4.55-2.49-7.89-6.61-9.75-4.09-1.85-8.07-1.32-11.58,1.5-4.75,3.81-5.52,10.38-1.91,15.36.15.2.41.4.41.61,0,.44.02,1.01-.23,1.28-.18.2-.93.19-1.17-.02-.53-.45-.97-1.05-1.33-1.66-3.3-5.45-2.13-11.89,1.51-15.82,4.75-5.12,11.89-5.35,16.74-2.3,6.71,4.23,8.31,13.29,3.39,19.45Z"/>
      <path fill="currentColor" d="M33.75,16.81c.75.48,1.46.8,1.96,1.32.26.27.35,1,.18,1.35-.27.55-.86.54-1.37.13-.24-.19-.52-.33-.98-.61-.11,1.39-.3,2.58-.24,3.77.02.36.67.73,1.08,1.02,2.15,1.46,2.74,3.61,1.3,5.74-.56.83-1.57,1.38-2.47,1.92-.41.25-.78.33-.79.92-.01.69-.37,1.16-1.15,1.11-.77-.06-.81-.6-.89-1.22-.04-.31-.36-.66-.65-.84-.63-.4-1.39-.61-1.94-1.09-.28-.25-.4-.96-.26-1.35.21-.59.78-.63,1.34-.29.51.31,1.05.58,1.75.97.15-1.8.29-3.42.39-5.04.01-.18-.18-.45-.36-.56-1.48-.9-2.51-2.07-2.25-3.92.26-1.85,1.49-2.85,3.23-3.29.18-.74-.03-1.78,1.17-1.69,1.08.08.95.96.93,1.65ZM32.66,29.62c1.14-.75,1.77-1.46,1.71-2.58-.05-.81-.46-1.35-1.35-1.66-.12,1.39-.22,2.68-.36,4.25ZM31.27,21.93c.07-1.01.13-1.86.2-2.84-1.35,1.04-1.42,1.89-.2,2.84Z"/>
      <path fill="currentColor" d="M56.99,25.91c.04.22.24.63.13.92-.12.3-.55.7-.82.69-2.02-.11-4.04-.28-6.05-.53-.27-.03-.66-.61-.65-.92,0-.32.45-.91.68-.9,2.09.09,4.18.29,6.26.47.09,0,.18.11.45.27Z"/>
      <path fill="currentColor" d="M7.34,23.21c-.05-.23-.27-.63-.17-.93.1-.3.52-.73.78-.72,2.02.1,4.05.26,6.06.5.28.03.72.61.69.89-.04.36-.49.97-.74.96-2.06-.08-4.11-.29-6.16-.46-.1,0-.19-.1-.46-.24Z"/>
    </g>
  </g>
</svg>