<svg id="Capa_2" xmlns="http://www.w3.org/2000/svg" width="74.17" height="46.75" viewBox="0 0 74.17 46.75">
  <g id="Capa_1-2" data-name="Capa_1">
    <path fill="currentColor" d="M18.71,6.6h3.36c1.56,0,3.13-.06,4.69.01,2.35.12,4.46-.19,6.54-1.6,2.9-1.96,6.17-1.59,9.31-.31,3.21,1.3,6.39,2.66,9.82,4.09-.33-1.83.92-2.16,2.07-2.57,4.12-1.47,8.39-2.18,12.72-2.51,1.44-.11,2.89-.15,4.34-.18,1.55-.03,2.09.5,2.1,2.01,0,8.84,0,17.68,0,26.52,0,1.41-.52,1.97-1.91,1.98-2.78.03-5.56.02-8.34,0-1.31-.01-1.42-.15-2.38-2.42-.64.41-1.3.77-1.86,1.25-.23.2-.36.64-.36.97-.07,2.69-1.67,4.57-4.31,5.14-.51.11-1.06.51-1.39.93-1.24,1.57-2.83,2.42-4.82,2.4-.75,0-1.2.17-1.68.81-1.38,1.82-3.19,2.79-5.57,2.23-.21-.05-.49-.07-.66.03-3.43,1.8-6.5.62-9.28-1.38-3.74-2.68-7.38-5.53-10.94-8.44-2.18-1.78-4.15-3.8-6.19-5.74-.3-.28-.5-.66-.9-.96-.36,1.95-1.58,2.17-3.11,2.12-2.47-.08-4.95-.01-7.43-.03-1.57,0-2.02-.48-2.02-2.07,0-8.8,0-17.6,0-26.4,0-1.4.53-2.05,1.77-1.97,4.48.31,8.96.67,13.28,2.03.25.08.51.16.75.26,2.24.89,2.52,1.3,2.41,3.8ZM18.33,9.66c-1.41,5.19-2.8,10.28-4.16,15.38-.07.26.07.67.26.88,5.63,6.24,12.36,11.17,19.12,16.05,1.12.81,2.47,1.25,4.12,1.12-.37-.4-.62-.67-.87-.93-1.7-1.75-3.42-3.48-5.07-5.26-.36-.38-.7-1-.66-1.47.04-.46.56-1.17.95-1.22.58-.08,1.38.15,1.8.55,2.09,2,4.08,4.1,6.12,6.16.4.4.83.79,1.29,1.13.86.65,1.96.39,2.81-.54.89-.96-.08-1.3-.55-1.79-1.93-2-3.91-3.96-5.78-6.01-.36-.4-.56-1.19-.44-1.72.09-.41.79-.92,1.23-.93.51-.01,1.14.37,1.54.76,2.04,2,4.01,4.06,6.02,6.09.4.4.83.8,1.3,1.11.83.54,2.52.16,3.09-.71.64-.98-.57-1.11-.85-1.68-.02-.03-.05-.05-.08-.08-2.43-2.47-4.87-4.93-7.28-7.42-.77-.79-.78-1.71-.07-2.31.78-.66,1.54-.5,2.23.17.19.19.37.39.56.57,2.58,2.59,5.16,5.18,7.72,7.79.67.68,1.37.78,2.14.25.78-.53,1.1-1.27.76-2.17-.19-.49-.46-.97-.8-1.37-.74-.87-1.47-1.76-2.33-2.5-4.57-3.91-9.18-7.77-13.78-11.65-.16-.14-.45-.34-.58-.28-1.26.55-2.77.87-3.7,1.78-2.19,2.12-4.56,3.23-7.62,2.59-2.7-.56-4-2.5-3.45-5.2.47-2.34,1.72-4.28,3.2-6.1.24-.3.48-.61.81-1.03h-9ZM57.39,30.32c.71-.47,1.35-.94,2.04-1.34.57-.33.67-.69.44-1.3-1.75-4.74-3.46-9.5-5.21-14.24-.13-.35-.44-.75-.77-.89-4.29-1.76-8.59-3.5-12.9-5.19-2.69-1.05-5.27-.74-7.53,1.08-1.54,1.23-3.1,2.51-4.36,4.01-1.12,1.34-1.96,2.97-2.68,4.58-.55,1.21-.1,1.7,1.2,1.98,2.13.46,3.56-.6,4.81-2.13.35-.42.77-.87,1.26-1.07,1.29-.53,2.65-.9,3.96-1.39.88-.33,1.58-.22,2.29.43,1.52,1.39,3.07,2.73,4.65,4.05,4.34,3.64,8.97,6.96,12.8,11.41ZM56.11,8.96c.23.54.45,1.01.63,1.5,2.38,6.53,4.75,13.06,7.13,19.58.12.32.37.83.57.84,2.03.06,4.07.04,6.11.04V6.74c-3.22-.32-10.79.84-14.44,2.22ZM3.62,3.65v24.2h6.51c1.06-3.69,2.17-7.32,3.12-10.99.84-3.27,1.51-6.59,2.23-9.89.12-.55.37-1.18-.55-1.46-3.66-1.11-7.43-1.49-11.32-1.86Z"/>
  </g>
</svg>