<svg class="paso-icon"  xmlns="http://www.w3.org/2000/svg" viewBox="0 0 79.39 119.26">
  <g id="Capa_1-2">
    <path fill="#ffffff" class="cls-1" d="m76.16,55.55c-3.5,7.45-8.04,12.91-14.18,16.99-.98.65-1.15,1.2-.74,2.29,4.14,11,8.22,22.01,12.33,33.02,1.24,3.31.97,6.38-1.55,8.98-3.8,3.93-10.3,2.95-12.7-1.99-1.2-2.47-2.04-5.11-3-7.69-3.33-8.93-6.66-17.85-9.94-26.8-.4-1.09-.87-1.4-2.05-1.26C20.23,81.93-.72,62.72.02,38.53.71,16.03,20.07-1.5,42.46.1c23.72,1.7,40.63,23.57,36.24,46.87-.26,1.4-.51,2.82-.93,4.17-.55,1.77-1.26,3.48-1.6,4.4ZM7.24,24.83c-8.22,17.88-.34,39.06,17.62,47.38,17.73,8.21,39.11.28,47.29-17.54,8.23-17.93.4-39.11-17.52-47.41C36.82-1,15.48,6.92,7.24,24.83Zm46.95,64.77c2.83,7.68,5.69,15.57,8.66,23.42.73,1.93,3.02,2.69,4.93,1.95,1.97-.76,3.05-2.85,2.29-4.92-2.85-7.79-5.79-15.56-8.62-23.14-2.44.9-4.85,1.79-7.27,2.68Zm-4.02-11.2c.78,2.15,1.66,4.57,2.63,7.23,2.35-.85,4.75-1.73,6.96-2.53-.99-2.75-1.86-5.17-2.62-7.29-2.33.86-4.7,1.74-6.97,2.58Z"/>
    <path fill="#ffffff" class="cls-1" d="m68.59,52.96c-7.32,15.92-26.36,22.96-42.2,15.6-15.86-7.37-22.84-26.26-15.55-42.1,7.32-15.92,26.36-22.96,42.2-15.6,15.86,7.37,22.84,26.26,15.55,42.1Zm-3.66-1.6c6.45-13.82.37-30.36-13.56-36.87-13.82-6.45-30.36-.36-36.87,13.57-6.45,13.82-.37,30.36,13.56,36.87,13.82,6.45,30.36.36,36.87-13.57Z"/>
    <path fill="#ffffff" class="cls-1" d="m63.31,42.22c-.56.23-1.31.83-1.9.71-.68-.15-1.28-.87-1.78-1.47-.22-.26-.08-.82-.09-1.24-.1-8.1-3.64-14.16-10.73-18.12-.32-.18-.66-.34-.96-.55-.95-.66-1.3-1.52-.75-2.6.56-1.09,1.57-1.38,2.55-.85,1.8.98,3.65,1.97,5.21,3.28,5.88,4.9,8.7,11.28,8.66,18.93,0,.52-.12,1.04-.22,1.91Z"/>
    <path fill="#ffffff" class="cls-1" d="m60.24,46.98c1.17.55,1.51,1.42,1.15,2.53-.35,1.06-1.58,1.53-2.61,1.03-1.09-.53-1.42-1.44-.96-2.51.47-1.08,1.37-1.38,2.42-1.05Z"/>
  </g>
</svg>
