<svg id="Capa_2" xmlns="http://www.w3.org/2000/svg" width="50.05" height="55.11" viewBox="0 0 50.05 55.11">
  <g id="Capa_1-2" data-name="Capa_1">
    <g>
      <path fill="#4835be" d="M25.08,4.05c3.07,0,6.13.02,9.2,0,1.26-.01,2.14.5,2.71,1.63,1.46,2.9,3.7,5.02,6.68,6.27,1.59.67,2.18,1.69,2.15,3.38-.06,3.54.06,7.09-.73,10.57-1.53,6.77-4.85,12.53-9.81,17.35-2.62,2.54-5.56,4.64-8.77,6.38-1.01.55-1.94.55-2.95,0-8.41-4.63-14.52-11.23-17.65-20.42-.99-2.92-1.52-5.93-1.61-9-.05-1.85-.01-3.71-.02-5.57,0-1.17.54-1.99,1.61-2.44,3.25-1.34,5.71-3.53,7.29-6.69.5-1.01,1.34-1.47,2.46-1.46,3.15,0,6.3,0,9.45,0ZM5.8,17.82c-.08,3.18.25,6.53,1.23,9.79,2.82,9.33,8.83,16.01,17.27,20.66.57.31,1.07.28,1.58-.07,2.23-1.52,4.59-2.87,6.64-4.59,5.66-4.75,9.39-10.75,11.03-18,.78-3.46.73-6.98.73-10.49,0-.84-.25-1.32-1.07-1.67-2.95-1.25-5.45-3.17-6.95-6.01-.84-1.58-1.83-1.91-3.45-1.88-5.63.09-11.25.04-16.88.03-.58,0-1.11.03-1.42.66-1.72,3.45-4.41,5.85-7.94,7.32-.57.24-.8.64-.78,1.25.02.93,0,1.86,0,3Z"/>
      <path fill="#4835be" d="M25.03.5c4.11,0,8.21,0,12.32,0,1.64,0,2.22.47,2.56,2.05.79,3.62,3.56,6.09,7.55,6.72,1.54.24,2.1.87,2.09,2.42-.04,3.71-.1,7.42-.16,11.13,0,.57-.17,1.05-.86.98-.69-.06-.68-.59-.68-1.13.06-3.71.09-7.42.14-11.13,0-.62-.37-.69-.86-.77-3.9-.67-6.81-2.65-8.31-6.43-.19-.47-.36-.96-.4-1.45-.06-.72-.44-.87-1.07-.85-1.35.03-2.7,0-4.05,0-6.81,0-13.62.01-20.42-.01-.78,0-1.11.19-1.29,1.02-.85,4.06-4.27,7.12-8.59,7.71-.71.1-.97.32-.95,1.04.07,3.68.1,7.36.17,11.05,0,.56-.14.99-.73,1.03-.53.03-.79-.34-.8-.87-.06-2.89-.12-5.79-.17-8.68-.02-.96-.02-1.91,0-2.87.03-1.26.67-1.97,1.92-2.16,3.4-.52,6-2.15,7.34-5.44.19-.46.3-.97.4-1.46.28-1.3.95-1.89,2.29-1.89,4.19,0,8.38,0,12.58,0Z"/>
      <path fill="#4835be" d="M25.1,54.59c-.36-.1-.7-.15-1-.29-6.99-3.38-12.95-7.99-17.32-14.5-2.49-3.7-4.28-7.7-5.31-12.04-.13-.54-.26-1.13.48-1.29.71-.16.87.36,1.01.93,2.73,10.69,9.21,18.45,18.7,23.86.93.53,1.88,1.02,2.84,1.48.27.13.68.2.93.08,7.59-3.65,13.8-8.82,18.03-16.21,1.66-2.9,2.87-5.97,3.65-9.21.14-.6.36-1.06,1.05-.88.67.18.58.72.45,1.24-2.06,8.42-6.62,15.23-13.28,20.7-2.82,2.32-5.95,4.13-9.21,5.75-.32.16-.68.25-1.01.37Z"/>
      <path fill="#4835be" d="M17.57,19.72c0-1.31,0-2.49,0-3.67.03-3.85,2.84-7.07,6.53-7.48,3.93-.44,7.41,1.99,8.3,5.83.16.68.16,1.39.18,2.1.03,1.04,0,2.07,0,3.23.35,0,.62,0,.89,0,1.93.02,2.82.91,2.83,2.86,0,3.21,0,6.41,0,9.62,0,.25,0,.51,0,.76-.07,1.69-1.03,2.63-2.74,2.64-5.37,0-10.75,0-16.12,0-.39,0-.79.01-1.18,0-1.4-.07-2.38-1.03-2.39-2.42-.02-3.68-.02-7.37,0-11.05,0-1.42.97-2.35,2.4-2.39.39-.01.78,0,1.3,0ZM25.11,21.24c-2.84,0-5.68,0-8.52,0-.93,0-1.21.28-1.21,1.21,0,3.46,0,6.91,0,10.37,0,.93.33,1.25,1.28,1.25,5.59,0,11.19,0,16.78,0,.99,0,1.3-.32,1.3-1.33,0-3.4,0-6.8,0-10.2,0-1.09-.24-1.31-1.37-1.31-2.75,0-5.51,0-8.26,0ZM19.17,19.65h11.81c0-1.5.13-2.94-.03-4.35-.33-3.01-2.76-5.14-5.77-5.23-2.94-.08-5.58,2.02-5.98,4.99-.2,1.49-.04,3.02-.04,4.6Z"/>
      <path fill="#4835be" d="M23.27,27.07c-.02-1.02.48-1.71,1.24-1.96.75-.25,1.57.01,2.02.65.47.65.56,1.6-.05,2.09-.7.57-.63,1.24-.63,1.96,0,.28.09.62-.04.83-.17.3-.5.68-.76.69-.24,0-.57-.42-.7-.72-.12-.29-.04-.66-.03-1,0-.62.05-1.2-.58-1.64-.29-.21-.38-.71-.47-.88Z"/>
    </g>
  </g>
</svg>